<mxfile host="app.diagrams.net" modified="2023-03-05T18:01:31.245Z" agent="5.0 (Windows NT 10.0; Win64; x64) AppleWebKit/537.36 (KHTML, like Gecko) Chrome/110.0.0.0 Safari/537.36" etag="L7eoVJqc_5MzKjPsgg00" version="21.0.2" type="github">
  <diagram name="Страница 1" id="uoNQJEx3A_vaIMhCAuuX">
    <mxGraphModel dx="880" dy="484" grid="1" gridSize="10" guides="1" tooltips="1" connect="1" arrows="1" fold="1" page="1" pageScale="1" pageWidth="827" pageHeight="1169" math="0" shadow="0">
      <root>
        <mxCell id="0" />
        <mxCell id="1" parent="0" />
        <mxCell id="rXGk9EtreM2exNDKNUjx-1" value="" style="edgeStyle=orthogonalEdgeStyle;rounded=0;orthogonalLoop=1;jettySize=auto;html=1;" edge="1" parent="1" source="rXGk9EtreM2exNDKNUjx-2" target="rXGk9EtreM2exNDKNUjx-4">
          <mxGeometry relative="1" as="geometry" />
        </mxCell>
        <mxCell id="rXGk9EtreM2exNDKNUjx-2" value="START" style="rounded=1;whiteSpace=wrap;html=1;" vertex="1" parent="1">
          <mxGeometry x="350" y="20" width="120" height="60" as="geometry" />
        </mxCell>
        <mxCell id="rXGk9EtreM2exNDKNUjx-3" value="" style="edgeStyle=orthogonalEdgeStyle;rounded=0;orthogonalLoop=1;jettySize=auto;html=1;" edge="1" parent="1" source="rXGk9EtreM2exNDKNUjx-4" target="rXGk9EtreM2exNDKNUjx-6">
          <mxGeometry relative="1" as="geometry" />
        </mxCell>
        <mxCell id="rXGk9EtreM2exNDKNUjx-4" value="array[size]" style="shape=parallelogram;perimeter=parallelogramPerimeter;whiteSpace=wrap;html=1;fixedSize=1;" vertex="1" parent="1">
          <mxGeometry x="350" y="120" width="120" height="60" as="geometry" />
        </mxCell>
        <mxCell id="rXGk9EtreM2exNDKNUjx-5" value="" style="edgeStyle=orthogonalEdgeStyle;rounded=0;orthogonalLoop=1;jettySize=auto;html=1;" edge="1" parent="1" source="rXGk9EtreM2exNDKNUjx-6" target="rXGk9EtreM2exNDKNUjx-9">
          <mxGeometry relative="1" as="geometry" />
        </mxCell>
        <mxCell id="rXGk9EtreM2exNDKNUjx-6" value="sum=0&lt;br&gt;index=0" style="rounded=0;whiteSpace=wrap;html=1;" vertex="1" parent="1">
          <mxGeometry x="350" y="220" width="120" height="60" as="geometry" />
        </mxCell>
        <mxCell id="rXGk9EtreM2exNDKNUjx-7" value="" style="edgeStyle=orthogonalEdgeStyle;rounded=0;orthogonalLoop=1;jettySize=auto;html=1;" edge="1" parent="1" source="rXGk9EtreM2exNDKNUjx-9" target="rXGk9EtreM2exNDKNUjx-12">
          <mxGeometry relative="1" as="geometry" />
        </mxCell>
        <mxCell id="rXGk9EtreM2exNDKNUjx-8" value="" style="edgeStyle=orthogonalEdgeStyle;rounded=0;orthogonalLoop=1;jettySize=auto;html=1;entryX=0;entryY=0.5;entryDx=0;entryDy=0;" edge="1" parent="1" source="rXGk9EtreM2exNDKNUjx-9" target="rXGk9EtreM2exNDKNUjx-22">
          <mxGeometry relative="1" as="geometry" />
        </mxCell>
        <mxCell id="rXGk9EtreM2exNDKNUjx-9" value="index&amp;lt;size" style="rhombus;whiteSpace=wrap;html=1;" vertex="1" parent="1">
          <mxGeometry x="370" y="320" width="80" height="80" as="geometry" />
        </mxCell>
        <mxCell id="rXGk9EtreM2exNDKNUjx-10" value="" style="edgeStyle=orthogonalEdgeStyle;rounded=0;orthogonalLoop=1;jettySize=auto;html=1;startArrow=none;exitX=0.25;exitY=1;exitDx=0;exitDy=0;" edge="1" parent="1" source="rXGk9EtreM2exNDKNUjx-16" target="rXGk9EtreM2exNDKNUjx-14">
          <mxGeometry relative="1" as="geometry">
            <Array as="points">
              <mxPoint x="530" y="480" />
            </Array>
          </mxGeometry>
        </mxCell>
        <mxCell id="rXGk9EtreM2exNDKNUjx-11" value="" style="edgeStyle=orthogonalEdgeStyle;rounded=0;orthogonalLoop=1;jettySize=auto;html=1;" edge="1" parent="1" source="rXGk9EtreM2exNDKNUjx-12" target="rXGk9EtreM2exNDKNUjx-15">
          <mxGeometry relative="1" as="geometry" />
        </mxCell>
        <mxCell id="rXGk9EtreM2exNDKNUjx-12" value="array[index]%2=1" style="rhombus;whiteSpace=wrap;html=1;" vertex="1" parent="1">
          <mxGeometry x="350" y="440" width="120" height="80" as="geometry" />
        </mxCell>
        <mxCell id="rXGk9EtreM2exNDKNUjx-13" value="" style="edgeStyle=orthogonalEdgeStyle;rounded=0;orthogonalLoop=1;jettySize=auto;html=1;entryX=0.45;entryY=1.05;entryDx=0;entryDy=0;entryPerimeter=0;" edge="1" parent="1" source="rXGk9EtreM2exNDKNUjx-14" target="rXGk9EtreM2exNDKNUjx-15">
          <mxGeometry relative="1" as="geometry">
            <mxPoint x="580" y="590" as="targetPoint" />
            <Array as="points">
              <mxPoint x="580" y="560" />
              <mxPoint x="244" y="560" />
            </Array>
          </mxGeometry>
        </mxCell>
        <mxCell id="rXGk9EtreM2exNDKNUjx-14" value="sum=sum+array[index]" style="rounded=0;whiteSpace=wrap;html=1;" vertex="1" parent="1">
          <mxGeometry x="460" y="540" width="140" height="60" as="geometry" />
        </mxCell>
        <mxCell id="rXGk9EtreM2exNDKNUjx-15" value="index=index+1" style="whiteSpace=wrap;html=1;" vertex="1" parent="1">
          <mxGeometry x="190" y="450" width="120" height="60" as="geometry" />
        </mxCell>
        <mxCell id="rXGk9EtreM2exNDKNUjx-17" value="false" style="text;html=1;strokeColor=none;fillColor=none;align=center;verticalAlign=middle;whiteSpace=wrap;rounded=0;" vertex="1" parent="1">
          <mxGeometry x="320" y="450" width="60" height="30" as="geometry" />
        </mxCell>
        <mxCell id="rXGk9EtreM2exNDKNUjx-18" value="" style="endArrow=classic;html=1;rounded=0;entryX=0;entryY=0.5;entryDx=0;entryDy=0;" edge="1" parent="1" target="rXGk9EtreM2exNDKNUjx-9">
          <mxGeometry width="50" height="50" relative="1" as="geometry">
            <mxPoint x="250" y="440" as="sourcePoint" />
            <mxPoint x="440" y="520" as="targetPoint" />
            <Array as="points">
              <mxPoint x="250" y="360" />
            </Array>
          </mxGeometry>
        </mxCell>
        <mxCell id="rXGk9EtreM2exNDKNUjx-19" value="true" style="text;html=1;strokeColor=none;fillColor=none;align=center;verticalAlign=middle;whiteSpace=wrap;rounded=0;" vertex="1" parent="1">
          <mxGeometry x="360" y="400" width="60" height="30" as="geometry" />
        </mxCell>
        <mxCell id="rXGk9EtreM2exNDKNUjx-20" value="false" style="text;html=1;strokeColor=none;fillColor=none;align=center;verticalAlign=middle;whiteSpace=wrap;rounded=0;" vertex="1" parent="1">
          <mxGeometry x="530" y="330" width="40" height="30" as="geometry" />
        </mxCell>
        <mxCell id="rXGk9EtreM2exNDKNUjx-21" value="" style="edgeStyle=orthogonalEdgeStyle;rounded=0;orthogonalLoop=1;jettySize=auto;html=1;" edge="1" parent="1" source="rXGk9EtreM2exNDKNUjx-22" target="rXGk9EtreM2exNDKNUjx-23">
          <mxGeometry relative="1" as="geometry" />
        </mxCell>
        <mxCell id="rXGk9EtreM2exNDKNUjx-22" value="print sum" style="shape=document;whiteSpace=wrap;html=1;boundedLbl=1;" vertex="1" parent="1">
          <mxGeometry x="610" y="320" width="120" height="80" as="geometry" />
        </mxCell>
        <mxCell id="rXGk9EtreM2exNDKNUjx-23" value="FINISH" style="rounded=1;whiteSpace=wrap;html=1;" vertex="1" parent="1">
          <mxGeometry x="610" y="450" width="120" height="60" as="geometry" />
        </mxCell>
        <mxCell id="rXGk9EtreM2exNDKNUjx-24" value="&lt;h1&gt;Сумма элементов массива с нечетными значениями&lt;/h1&gt;" style="text;html=1;strokeColor=none;fillColor=none;spacing=5;spacingTop=-20;whiteSpace=wrap;overflow=hidden;rounded=0;" vertex="1" parent="1">
          <mxGeometry x="570" y="80" width="190" height="180" as="geometry" />
        </mxCell>
        <mxCell id="rXGk9EtreM2exNDKNUjx-25" value="" style="edgeStyle=orthogonalEdgeStyle;rounded=0;orthogonalLoop=1;jettySize=auto;html=1;endArrow=none;" edge="1" parent="1" source="rXGk9EtreM2exNDKNUjx-12" target="rXGk9EtreM2exNDKNUjx-16">
          <mxGeometry relative="1" as="geometry">
            <mxPoint x="450" y="480" as="sourcePoint" />
            <mxPoint x="510" y="480" as="targetPoint" />
            <Array as="points">
              <mxPoint x="480" y="480" />
              <mxPoint x="480" y="480" />
            </Array>
          </mxGeometry>
        </mxCell>
        <mxCell id="rXGk9EtreM2exNDKNUjx-16" value="true" style="text;html=1;strokeColor=none;fillColor=none;align=center;verticalAlign=middle;whiteSpace=wrap;rounded=0;" vertex="1" parent="1">
          <mxGeometry x="460" y="450" width="60" height="30" as="geometry" />
        </mxCell>
      </root>
    </mxGraphModel>
  </diagram>
</mxfile>
